<svg xmlns="http://www.w3.org/2000/svg" width="174" height="35.215" viewBox="0 0 174 35.215"><defs><style>.a{fill:#fff;}</style></defs><g transform="translate(-2937.836 -1270.521)"><g transform="translate(2937.836 1270.521)"><g transform="translate(10.97 0)"><path class="a" d="M3001.835,1300.742a1.42,1.42,0,0,1-2.007,0l-7.288-7.288c-.023-.023-.047-.048-.069-.073a12.694,12.694,0,0,1-4.988,2.363,11.752,11.752,0,0,0,.956-3.274,9.932,9.932,0,1,0-12.689-13.6,11.8,11.8,0,0,0-3.335.726,12.772,12.772,0,1,1,22.089,11.807l.042.041,7.288,7.288A1.421,1.421,0,0,1,3001.835,1300.742Z" transform="translate(-2972.415 -1270.521)"/></g><g transform="translate(0 9.61)"><path class="a" d="M2952.991,1300.812a10.731,10.731,0,0,0-1.4.092,10.514,10.514,0,0,0-3.143.926,10.667,10.667,0,0,0-4.021,16c-.03.025-.058.05-.085.077l-6.086,6.087a1.419,1.419,0,1,0,2.006,2.007l6.087-6.087.052-.054a10.666,10.666,0,1,0,6.594-19.049Zm7.448,13.075a7.827,7.827,0,1,1-12.116-8.688,7.787,7.787,0,0,1,4.668-1.549,7.827,7.827,0,0,1,7.448,10.237Z" transform="translate(-2937.836 -1300.812)"/><path class="a" d="M2982.2,1323.155a6.572,6.572,0,0,1-1.664,2.515,12.782,12.782,0,0,1-8.917-9.556,6.548,6.548,0,0,1,2.624-1.486A9.955,9.955,0,0,0,2982.2,1323.155Z" transform="translate(-2960.898 -1310.245)"/></g></g><g transform="translate(2988.793 1277.421)"><path class="a" d="M3110.213,1304.849a4.423,4.423,0,0,1-1.507,3.47,6.092,6.092,0,0,1-4.184,1.329,6.216,6.216,0,0,1-6.067-3.648l2.776-1.428a3.578,3.578,0,0,0,3.391,2.161c1.368,0,2.359-.694,2.359-1.646a1.191,1.191,0,0,0-.615-1.071,8.848,8.848,0,0,0-2.32-.932,9.134,9.134,0,0,1-3.787-1.884,3.845,3.845,0,0,1-1.19-2.875,4.161,4.161,0,0,1,1.586-3.351,5.73,5.73,0,0,1,3.827-1.329,5.528,5.528,0,0,1,5.453,3.351l-2.657,1.447a2.921,2.921,0,0,0-2.935-1.9c-1.269,0-2.062.655-2.062,1.586s.734,1.408,2.5,1.9C3108.488,1301.082,3110.213,1302.37,3110.213,1304.849Z" transform="translate(-3098.455 -1293.21)"/><path class="a" d="M3139.643,1310.815a5.8,5.8,0,0,1,4.125-1.606,5.737,5.737,0,0,1,4.084,1.586,5.141,5.141,0,0,1,1.666,3.906,5.26,5.26,0,0,1-1.685,3.986,5.821,5.821,0,0,1-4.1,1.586,5.735,5.735,0,0,1-4.1-1.567,5.485,5.485,0,0,1,.02-7.892Zm2.241,5.869a2.623,2.623,0,0,0,4.461-1.963,2.631,2.631,0,0,0-.753-1.923,2.5,2.5,0,0,0-1.864-.773,2.454,2.454,0,0,0-1.844.773,2.631,2.631,0,0,0-.754,1.923A2.723,2.723,0,0,0,3141.884,1316.684Z" transform="translate(-3125.426 -1303.835)"/><path class="a" d="M3178.442,1318.707a5.577,5.577,0,0,1,.06-7.892,5.612,5.612,0,0,1,4.045-1.606,4.974,4.974,0,0,1,5,3.271l-2.717,1.13a2.345,2.345,0,0,0-2.28-1.567,2.691,2.691,0,0,0,0,5.374,2.368,2.368,0,0,0,2.34-1.567l2.736,1.13a5.118,5.118,0,0,1-5.1,3.292A5.592,5.592,0,0,1,3178.442,1318.707Z" transform="translate(-3151.969 -1303.835)"/><path class="a" d="M3217.435,1294.194a1.923,1.923,0,0,1-3.847,0,1.934,1.934,0,0,1,1.9-1.923A1.9,1.9,0,0,1,3217.435,1294.194Zm-3.47,14.276v-10.588h3.113v10.588Z" transform="translate(-3177.062 -1292.271)"/><path class="a" d="M3230.245,1319.381a2.836,2.836,0,0,1-1.031-2.3v-.04a2.759,2.759,0,0,1,1.566-2.617,7.123,7.123,0,0,1,3.153-.635h1.051q.833,0,.833-.773c0-.734-.6-1.309-1.706-1.309a2.547,2.547,0,0,0-2.359,1.428l-2.36-1.408c.912-1.685,2.538-2.518,4.858-2.518,2.8,0,4.6,1.487,4.6,4.263v6.563H3236v-1.309l-.04-.02a3.631,3.631,0,0,1-3.172,1.527A3.852,3.852,0,0,1,3230.245,1319.381Zm5.552-3.45v-.238h-1.864c-.892,0-1.606.417-1.606,1.21,0,.714.555,1.071,1.348,1.071A1.968,1.968,0,0,0,3235.8,1315.931Z" transform="translate(-3187.73 -1303.835)"/><path class="a" d="M3268.89,1308.556h-3.113V1292.4h3.113Z" transform="translate(-3212.693 -1292.356)"/><path class="a" d="M3303.724,1304.849a4.423,4.423,0,0,1-1.507,3.47,6.091,6.091,0,0,1-4.184,1.329,6.216,6.216,0,0,1-6.068-3.648l2.776-1.428a3.578,3.578,0,0,0,3.391,2.161c1.368,0,2.359-.694,2.359-1.646a1.191,1.191,0,0,0-.615-1.071,8.856,8.856,0,0,0-2.32-.932,9.134,9.134,0,0,1-3.787-1.884,3.846,3.846,0,0,1-1.19-2.875,4.161,4.161,0,0,1,1.586-3.351,5.73,5.73,0,0,1,3.827-1.329,5.529,5.529,0,0,1,5.453,3.351l-2.657,1.447a2.921,2.921,0,0,0-2.935-1.9c-1.269,0-2.062.655-2.062,1.586s.733,1.408,2.5,1.9C3302,1301.082,3303.724,1302.37,3303.724,1304.849Z" transform="translate(-3230.573 -1293.21)"/><path class="a" d="M3332.687,1319.381a2.837,2.837,0,0,1-1.031-2.3v-.04a2.759,2.759,0,0,1,1.567-2.617,7.12,7.12,0,0,1,3.152-.635h1.051q.833,0,.833-.773c0-.734-.595-1.309-1.705-1.309a2.548,2.548,0,0,0-2.36,1.428l-2.359-1.408c.912-1.685,2.538-2.518,4.858-2.518,2.8,0,4.6,1.487,4.6,4.263v6.563h-2.855v-1.309l-.04-.02a3.631,3.631,0,0,1-3.172,1.527A3.852,3.852,0,0,1,3332.687,1319.381Zm5.552-3.45v-.238h-1.864c-.892,0-1.606.417-1.606,1.21,0,.714.555,1.071,1.348,1.071A1.968,1.968,0,0,0,3338.239,1315.931Z" transform="translate(-3257.672 -1303.835)"/><path class="a" d="M3372.845,1295.027a3.273,3.273,0,0,0-.952-.119,1.7,1.7,0,0,0-1.883,1.864v1.11h2.776v2.637h-2.756v7.951h-3.093v-7.951h-1.9v-2.637h1.9v-1.051c0-2.756,1.467-4.561,4.461-4.561a4.909,4.909,0,0,1,1.448.218Z" transform="translate(-3280.46 -1292.271)"/><path class="a" d="M3392.939,1315.551a2.484,2.484,0,0,0,2.617,2.082,2.835,2.835,0,0,0,2.359-1.269l2.241,1.467a4.765,4.765,0,0,1-4.561,2.4,5.9,5.9,0,0,1-4.144-1.547,5.265,5.265,0,0,1-1.666-4.005,5.319,5.319,0,0,1,1.646-3.906,5.466,5.466,0,0,1,3.966-1.626,5.032,5.032,0,0,1,5.274,5.294c0,.5-.02.872-.04,1.11Zm4.64-2.042a2.092,2.092,0,0,0-2.26-1.844,2.359,2.359,0,0,0-2.3,1.844Z" transform="translate(-3297.36 -1303.792)"/><path class="a" d="M3432.156,1313.361a4.907,4.907,0,0,1-1.447.2c-2.756,0-4.2-1.507-4.2-3.985v-4.065h-1.9v-2.677h1.943v-3.312h3.053v3.312h2.618v2.677H3429.6v3.688c0,1.21.635,1.686,1.844,1.686a2.722,2.722,0,0,0,.714-.079Z" transform="translate(-3321.13 -1297.221)"/><path class="a" d="M3449.729,1309.959h3.41l2.637,6.047,2.36-6.047h3.192l-6.424,15.8h-3.311l2.6-6.345Z" transform="translate(-3338.286 -1304.347)"/></g></g></svg>